# xmcd
#
# Track frame offsets:
#	150
#	18262
#	36296
#	51540
#	70875
#	89305
#	108726
#	124182
#	138727
#	157836
#	170713
#	186784
#	207377
#	223591
#	243868
#	260424
#	281962
#	303314
#	315831
#	335129
#
# Disc length: 4786 seconds
#
# Revision: 0
# Processed by: cddbd v1.5.2PL0 Copyright (c) Steve Scherf et al.
# Submitted via: dBpowerAMP V4.0
#
DISCID=3212b014
DTITLE=Vários - Baile de Verão Romântico
DYEAR=2007
DGENRE=Country
TTITLE0=Falar de Amor (Eu Preciso)
TTITLE1=Obrigado, Mãe Querida
TTITLE2=Tudo Passará
TTITLE3=Maravilhoso Coração
TTITLE4=Cinderela
TTITLE5=Som de Cristal
TTITLE6=Felicidade(Quando O Telefone Toca)
TTITLE7=Chora Coração
TTITLE8=Anjo
TTITLE9=Amor de Água Fresca
TTITLE10=Brincando Com O Fogo
TTITLE11=Eu Quero Agradecer
TTITLE12=Pronta P'ra Te Amar
TTITLE13=Não És Homem Pra Mim
TTITLE14=Nunca Te Traí
TTITLE15=Apaixonados Para Sempre
TTITLE16=Peço-te Ajuda
TTITLE17=Diz-me Diante Dela
TTITLE18=Maldito Dia
TTITLE19=Nossa Senhora
EXTD=
EXTT0=
EXTT1=
EXTT2=
EXTT3=
EXTT4=
EXTT5=
EXTT6=
EXTT7=
EXTT8=
EXTT9=
EXTT10=
EXTT11=
EXTT12=
EXTT13=
EXTT14=
EXTT15=
EXTT16=
EXTT17=
EXTT18=
EXTT19=
PLAYORDER=
